<link rel="stylesheet" type="text/css" href="main.css" />

<svg id="Layer_1" data-name="Layer 1" xmlns="http://www.w3.org/2000/svg" width="780" height="1578.52" viewBox="0 0 780 1578.52">
  <title>benin</title>
  <path id="Alibori" d="M716.44,180.41l-5.56,5.82L693.35,216l-3,11.53-6.65,17.65.44,5.88,3.76,7,45.24,63.69,6.12,5.79,4.75-.07,4.17,2.16-2.58,9.92,1,10.64,4.45,9.11,5.2,22.76-.29,7.51L750.49,403l1,7.47,6.15,6.17,3.64,11.12,2.37,2.84,10,3.49L776,439l1.29,13.62-95.73,10.59L620.7,475.58l-61,5.1-36.91-7.59-13.78-.41-40.52,5.51-39.77-3-12.85,2.28-12.77.83-13.21,3.09-12.19,0,2.84-1.58-1.27-81.31,1.38-7.33,7.6-10.21,15-12.51-8.21-7.9-9.54-4.72-5.52-.67-12.45-17.78-49.14-88.08L317.26,248l33.21-33.79,18.46-15,13.52-7.55,4.4-5.81-.05-7.28,2.72-7.24,9.71-10.84,3.55-6.65,9.1-24.75-3.44-7,1.09-6.1,6.71-.85,5.42-7.46,7,.33-.36-7.59-6.74-3-5.82-6.75-8.49-24-2.69-20.1L406.79,42l6.1-2.8,12.51-.52,4-4.5,4.6,2.35,2.61-5.83,7.12-.27,3.78,3,4.89-3.79,9-2.44,3.16,1.46,7.56-3.2L481,27.85,486.81,21l2.05-5.84,11.72-3.32,6.83-6.64,16.13-1,3-3.89,12.1,10.81,5.14,2.76,4.49,5.89,1.62,5.76,7.82,4.69,10.49,1.6,13.66,21.15,43.42,39.51,5,5.32L632.15,109l7.62,14.36,5.74,6.16,6.6,3,6.94-3.69,8.51,3.07,11.32,7,9.24,3.29,4.87,3.89,8.45,12.05,4.22,3.38,4.55,12.24Z" transform="translate(1.25 1.25)" fill="#fff" fill-opacity="0" stroke="#000" stroke-linejoin="round" stroke-width="3"/>
  <path id="Borgou" d="M777.25,452.66l-1.86,14.69-8.72,19.55-.26,13.17-5.5,9.5-3.95.61-16.17-8.45-10.29.66-7.3,8.89L722,519.35l-6.37,9.79-5.19,11.54,3.83,10.59,19.44,20.92.06,8.55-2.51,7-10.75,7.86-1.64,4.12-1.57,21.78-2.56,5.07-8.16,9.75-6.66,12.13-4.46,4.17L680.21,651l-9.83,2.62-18.16,7.45-6.29,8.12.31,10.77,5.11,15.61-1.76,6.67-8.23,4.61L632,705.66l-4.07,1.25-1.9,6.28,1.35,6.28L612,739.62,604.17,744l-4.85,7.86-1,7.06,5.76,19.35,0,16.54L597.32,810l-8.41,26.11-3.86,8-6.21,4.31-17.26,4.48-10.69-4.19-13.2.43-7.26,5.8-22.86-1.13.81,6.74-.55,16.13-1.37,7-3.66,5.83,3,9.28-4.1,11.17,1.62,6.16-5.92,5.55-1.49,4.9-133.4-1.39,2.14-9-3.82-2.67-25.25-7.06-9.35-5.53-5-7.84-1.49-9.36.56-12.57,1.8-11.61L326.2,845l-3.11-5.4-9.35-4.79-6.05-8.27L305.86,813l.11-14.52,1.22-8.57,3.69-11,5.43-3.31,19.55-.86,4.8-2,3.48-6.23,10-65.41L351.78,693l-9.37-9.24-3.83-6.43-4.87-14.15-.07-7.69,4.1-25.63-2.22-12.48,3.21-6.66-2.16-5.17-1.18-5.77,6-8,4.93-1.84,13.79-.45L374.19,585l6.74-5.87.74-8.22-2-18.19L375.28,537l-3.84-9.79-11.59-13.94-.08-9.55,4.69-9.6,6.36-8.29,6.92-4.38,12.19,0,13.21-3.09,12.77-.83,12.85-2.28,39.77,3,40.52-5.51,13.78.41,36.91,7.59,61-5.1,60.82-12.33Z" transform="translate(1.25 1.25)" fill="#fff" fill-opacity="0" stroke="#000" stroke-linejoin="round" stroke-width="3"/>
  <path id="Plateau" d="M494.56,1209.29l-.58,8.31,1.32,10,5.07,9.45,7.46,8.91,5.58,9.3-2.26,14.83-8.09-1.12-2.56,3.92,5.3,62.43-1.1,5.91-5.42,9.14.69,5.05,8.81,8.17.47,5.14-8.78,3.73-6.55,9.13.84,9.2,3.41,9.73,1.26,10.64-3.36,16.13,5.34,9.11,5.72,1.07,2,3.71.84,11.7-9.09,9-2.89,5.45,2.08,15.88-.51,5.37-4.68,13.62L485,1485.42l-16.14-14.5-4.86-8-5.21-29.73-12.07-29.31-2.43-12.85.43-12.9,10.11-1.78-1.21-11.3-6.87-35.59-11.95-8.15-3.84-8.39-8.22-28.56v-11.35l-1.38-4.74-2.46-12.4,10.89-16.79,6.15-2.82-.54-16.61,3.8-10.55Z" transform="translate(1.25 1.25)" fill="#fff" fill-opacity="0" stroke="#000" stroke-linejoin="round" stroke-width="3"/>
  <path id="Collines" d="M483,1149.63l5,11.36,6,6.77,3,7.3-2.42,34.23-55.41-.14-3.8,10.55.54,16.61-6.15,2.82-10.89,16.79,2.46,12.4L376,1247.62,358.21,1242l-14.7-1.31-13.32.33-11.95-2-9.57-6.59-9.43-8.37-13.79-5.75-11.29-2.36-51.05,3-5-.44-.39-95,1.07-69.61L216.14,1032l-2.77-2.85.92-13.83,8.29-13.71-.12-7-7.8-11.12-.47-10.58,18.13.82,8.9-.67,21.93-5.89,7.21-1,8.34,4.47,6.83,7.35,6.5,2.55,7.67-.07,4.71,2.27,5.6,6.63,18.57,8.71,9.16.51,7,2.55,9,.24,13.09-6.79L365.54,984l3.4-21.8-4.14-22.72L360.63,933l1.88-7.88,133.4,1.39,4.92,62,.58,7.41-2,8.59-8.38,11.86.57,9.3-2.24,15.4,2.87,11.67,6.69,16-.14,5.57-6.57,13.21L491,1107.33l-3.18,16.1-1,16Z" transform="translate(1.25 1.25)" fill="#fff" fill-opacity="0" stroke="#000" stroke-linejoin="round" stroke-width="3"/>
  <path id="Ouémé" d="M493.12,1509.83l-1.94,11.34-.1,15.45-55.52,5.18-5-6.9.82-5.25,5-16-1.09-11.55-7-3.6-2.78-5-1.8-23.1L421.71,1421l-2.51-10.33-8.65-14.09.43-5.14,6.89-10.53,4.07-2.14,22.73-.6-.43,12.9,2.43,12.85,12.07,29.31L464,1463l4.86,8,16.14,14.5,9.91,16.73Z" transform="translate(1.25 1.25)" fill="#fff" fill-opacity="0" stroke="#000" stroke-linejoin="round" stroke-width="3"/>
  <path id="Atakora" d="M317.26,248l1.17,1.37,49.14,88.08L380,355.22l5.52.67,9.54,4.72,8.21,7.9-15,12.51-7.6,10.21-1.38,7.33,1.27,81.31-2.84,1.58-6.92,4.38-6.36,8.29-4.69,9.6.08,9.55,11.59,13.94,3.84,9.79,4.42,15.73,2,18.19-.74,8.22L374.19,585l-14.11,4.46-13.79.45-4.93,1.84-6,8,1.18,5.77-71.7-2.27-9.47,3.55-8.87,5.1-8.3,6.77L227.5,624l-12.68,3.09-15.95-1.76-10.74-2.47-22.93-1.79-17.48,4-3.26-10.63L60.14,558.34,2.5,519.92.25,510.2l3.52-26.28L7.48,469.7l.19-10-2-23,3.63-8.54L23,415.1l3.26-4.69,1.67-11.2,3.94-7.53L28.8,381l.74-5.07L36,360.18l7.69,4.25,7.91.5,1.46-7.35-3.47-2.32-.73-7.77,6.18-9.19,7.83.84,6.84,6.59L75,344l15.79,2-4.47-5.68-1-8.7-3.6-7,8.77-12.06,10.34,3.33L98.57,302.8l-4.71-7.75,6.49-9.71,6.22,6.19,4.82-1.95,8.87,1.4,8.39,4,3.19-5.94,5.42-4.53,11.44-3.75-4.4-11.16,2.19-4.84,14.9-8.34L159,251l2.4-5.19,6.34-3.44,4.15-5.12,9,3.32,23.75,1.91L212.77,259l9.24-4,11.67-2.46,8.77-3.57,15.93.45,14.75-5,9.89.16,17.22,7.19,8.93.69Z" transform="translate(1.25 1.25)" fill="#fff" fill-opacity="0" stroke="#000" stroke-linejoin="round" stroke-width="3"/>
  <path id="Donga" d="M147.72,625.08l17.48-4,22.93,1.79,10.74,2.47,15.95,1.76L227.5,624l10.73-5.34,8.3-6.77,8.87-5.1,9.47-3.55,71.7,2.27,2.16,5.17-3.21,6.66,2.22,12.48-4.1,25.63.07,7.69,4.87,14.15,3.83,6.43,9.37,9.24,2.32,8.14-10,65.41-3.48,6.23-4.8,2-19.55.86-5.43,3.31-3.69,11L306,798.51,305.86,813l1.83,13.52,6.05,8.27,9.35,4.79,3.11,5.4-4.12,14.48-1.8,11.61-.56,12.57,1.49,9.36,5,7.84,9.35,5.53,25.25,7.06,3.82,2.67-2.14,9L360.63,933l4.17,6.53,4.14,22.72-3.4,21.8,1.29,10.64-13.09,6.79-9-.24-7-2.55-9.16-.51L310,989.45l-5.6-6.63-4.71-2.27-7.67.07-6.5-2.55-6.83-7.35-8.34-4.47-7.21,1-21.93,5.89-8.9.67-18.13-.82-1.52-117.27L209.3,842.6l-5.19-9.13-35.86-37.62-1.29-2-4.78-7.38-3.66-10.15-1.72-25.81-2.9-7.22-4.33,2.1-6.29-10,.24-8.5,6-10.12,1.19-13.35-2-11.91Z" transform="translate(1.25 1.25)" fill="#fff" fill-opacity="0" stroke="#000" stroke-linejoin="round" stroke-width="3"/>
  <path id="Zou" d="M218.24,1240.31l-.1-21.86,5,.44,51.05-3,11.29,2.36,13.79,5.75,9.43,8.37,9.57,6.59,11.95,2,13.32-.33,14.7,1.31,17.81,5.64,45.29,20.7,1.38,4.74v11.35l8.22,28.56,3.84,8.39,11.95,8.15,6.87,35.59,1.21,11.3-10.11,1.78-22.73.6-4.07,2.14L411,1391.45l-.43,5.14-76,.31-8.61,1.88-12.46-7.48L307,1379.24l-4.06-2.14-9.41-13.91-7.2-5-3.13-5.3L277.5,1330l-3.89-6.76-15.11-19-6.91-7.39-.86-6.54-3.8-10.58-13.24-28.17-7.28-9.61Z" transform="translate(1.25 1.25)" fill="#fff" fill-opacity="0" stroke="#000" stroke-linejoin="round" stroke-width="3"/>
  <path id="Kouffo" d="M218.24,1240.31l8.17,1.66,7.28,9.61,13.24,28.17,3.8,10.58.86,6.54,6.91,7.39,15.11,19,3.89,6.76,5.68,22.89,3.13,5.3,7.2,5,9.41,13.91,4.06,2.14,6.52,12.06,12.46,7.48,8.61-1.88,2.31,6.21-6.77,17-6.85,11L322.7,1444l-3.37,6.9-15.4-7.72-7.78-2.21-8.43-.34-13.76,3L258,1449.47l-23.74,5.6-9.78-.62-14.86-7.11,3-6.58-4.51-15.69,1.23-18.51-6-5.53-3.25-4.52-4.9-18,19.07.14,4.6-1.37Z" transform="translate(1.25 1.25)" fill="#fff" fill-opacity="0" stroke="#000" stroke-linejoin="round" stroke-width="3"/>
  <path id="Mono" d="M209.64,1447.34l14.86,7.11,9.78.62,23.74-5.6L274,1443.6l13.76-3,8.43.34,7.78,2.21,15.4,7.72-2.15,15.63-5.28,6.84-1.1,4.51,1.14,21.2-1,8.25-8.23,23.22.78,7.83,3.87,5.63,2.89,13.37-26,3-66.89,15.44-1.82-5.29,5.22-2.77,32.43-7.69,5.26-.31-9.66-37.64-6.49-10.46-7.6-4.43-1.6-9L227,1490l-1-4.67-6.68-.69-8.41-9.55.55-6.44-7.64-10.58Z" transform="translate(1.25 1.25)" fill="#fff" fill-opacity="0" stroke="#000" stroke-linejoin="round" stroke-width="3"/>
  
<path id="Atlantique" d="M404.22,1544.72,390.88,1546l-20.25,4.52-60.36,6.88L307.38,1544l-3.87-5.63-.78-7.83,8.23-23.22,1-8.25-1.14-21.2,1.1-4.51,5.28-6.84,2.15-15.63,3.37-6.9.56-12.83,6.85-11,6.77-17-2.31-6.21,76-.31,8.65,14.09,2.51,10.33,2.08,49.43,1.8,23.1,2.78,5,7,3.6,1.09,11.55-5,16-17.27,3-7.6,5.9Z" transform="translate(1.25 1.25)" fill="#fff" fill-opacity="0" stroke="#000" stroke-linejoin="round" stroke-width="3"/>
<script src="https://code.jquery.com/jquery-2.2.4.min.js"></script>
<script src="main.js"></script>
</svg>
